<svg width="405.3900634765625px" height="201.21995849609374px" xmlns="http://www.w3.org/2000/svg" viewBox="47.304968261718756 -25.60997924804687 405.3900634765625 201.21995849609374" style="background: rgba(0, 0, 0, 0);" preserveAspectRatio="xMidYMid"><defs><filter id="editing-extrusion" x="-100%" y="-100%" width="300%" height="300%"><feFlood result="color1" flood-color="#cccccc"></feFlood><feConvolveMatrix order="1,1" divisor="1" kernelMatrix="1" in="SourceAlpha" result="extrude"></feConvolveMatrix><feComposite in="color1" in2="extrude" result="comp-extrude" operator="in"></feComposite><feOffset dx="0.5" dy="0.5" in="comp-extrude" result="offset-extrude"></feOffset><feMerge><feMergeNode in="offset-extrude"></feMergeNode><feMergeNode in="SourceGraphic"></feMergeNode></feMerge></filter></defs><g filter="url(#editing-extrusion)"><g transform="translate(106.69499778747559, 115.71000289916992)"><path d="M8.74 0L8.74-78.40L46.14-78.40L46.14-72.58L15.01-72.58L15.01-46.26L36.40-46.26L34.27-40.10L15.01-40.10L15.01-5.60L45.92-5.60L45.92 0L8.74 0ZM57.12-40.10L57.12-46.26L92.96-46.26L92.96-40.10L57.12-40.10ZM106.74 0L106.74-78.40L134.29-78.40L134.29-78.40Q144.93-78.40 150.14-71.90L150.14-71.90L150.14-71.90Q155.34-65.41 155.34-54.43L155.34-54.43L155.34-54.43Q155.34-47.38 154.22-41.72L154.22-41.72L154.22-41.72Q153.10-36.06 148.62-31.75L148.62-31.75L148.62-31.75Q144.14-27.44 135.07-27.44L135.07-27.44L113.01-27.44L113.01 0L106.74 0ZM135.18-33.60L135.18-33.60Q141.46-33.60 144.54-36.96L144.54-36.96L144.54-36.96Q147.62-40.32 148.34-44.58L148.34-44.58L148.34-44.58Q149.07-48.83 149.07-54.10L149.07-54.10L149.07-54.10Q149.07-63.28 145.26-67.87L145.26-67.87L145.26-67.87Q141.46-72.46 134.74-72.46L134.74-72.46L113.01-72.46L113.01-33.60L135.18-33.60ZM213.14-20.72L213.14-20.72Q213.14-9.41 206.25-4.09L206.25-4.09L206.25-4.09Q199.36 1.23 189.73 1.23L189.73 1.23L189.73 1.23Q183.68 1.23 178.30-0.95L178.30-0.95L178.30-0.95Q172.93-3.14 169.51-8.06L169.51-8.06L169.51-8.06Q166.10-12.99 166.10-20.72L166.10-20.72L166.10-56.78L166.10-56.78Q166.10-68.32 172.42-74.26L172.42-74.26L172.42-74.26Q178.75-80.19 189.84-80.19L189.84-80.19L189.84-80.19Q200.93-80.19 207.03-73.92L207.03-73.92L207.03-73.92Q213.14-67.65 213.14-56.67L213.14-56.67L213.14-20.72ZM206.98-57.79L206.98-57.79Q206.98-65.97 202.22-70.11L202.22-70.11L202.22-70.11Q197.46-74.26 189.62-74.26L189.62-74.26L189.62-74.26Q181.78-74.26 177.07-70.11L177.07-70.11L177.07-70.11Q172.37-65.97 172.37-57.79L172.37-57.79L172.37-20.83L172.37-20.83Q172.37-12.88 177.24-8.79L177.24-8.79L177.24-8.79Q182.11-4.70 189.62-4.70L189.62-4.70L189.62-4.70Q197.23-4.70 202.10-8.68L202.10-8.68L202.10-8.68Q206.98-12.66 206.98-20.94L206.98-20.94L206.98-57.79ZM231.06-19.94L231.06-19.94Q231.39-16.13 233.91-12.66L233.91-12.66L233.91-12.66Q236.43-9.18 240.86-7L240.86-7L240.86-7Q245.28-4.82 250.99-4.82L250.99-4.82L250.99-4.82Q259.62-4.82 265.38-8.68L265.38-8.68L265.38-8.68Q271.15-12.54 271.15-20.94L271.15-20.94L271.15-20.94Q271.15-25.87 268.35-29.18L268.35-29.18L268.35-29.18Q265.55-32.48 261.41-34.44L261.41-34.44L261.41-34.44Q257.26-36.40 250.10-38.98L250.10-38.98L250.10-38.98Q242.37-41.66 237.72-43.96L237.72-43.96L237.72-43.96Q233.07-46.26 229.88-50.18L229.88-50.18L229.88-50.18Q226.69-54.10 226.69-60.26L226.69-60.26L226.69-60.26Q226.69-65.18 229.49-69.61L229.49-69.61L229.49-69.61Q232.29-74.03 237.94-76.78L237.94-76.78L237.94-76.78Q243.60-79.52 251.89-79.52L251.89-79.52L251.89-79.52Q257.38-79.52 260.96-78.74L260.96-78.74L260.96-78.74Q264.54-77.95 268.24-76.16L268.24-76.16L266.34-70.22L266.34-70.22Q259.95-73.47 252.11-73.47L252.11-73.47L252.11-73.47Q243.49-73.47 238.34-69.89L238.34-69.89L238.34-69.89Q233.18-66.30 233.18-59.92L233.18-59.92L233.18-59.92Q233.18-55.89 235.76-53.14L235.76-53.14L235.76-53.14Q238.34-50.40 242.09-48.72L242.09-48.72L242.09-48.72Q245.84-47.04 252.56-44.69L252.56-44.69L252.56-44.69Q260.74-41.89 265.78-39.48L265.78-39.48L265.78-39.48Q270.82-37.07 274.34-32.65L274.34-32.65L274.34-32.65Q277.87-28.22 277.87-21.50L277.87-21.50L277.87-21.50Q277.87-11.20 271.32-4.98L271.32-4.98L271.32-4.98Q264.77 1.23 251.10 1.23L251.10 1.23L251.10 1.23Q242.82 1.23 236.94-1.85L236.94-1.85L236.94-1.85Q231.06-4.93 227.98-9.80L227.98-9.80L227.98-9.80Q224.90-14.67 224.67-19.94L224.67-19.94L231.06-19.94Z" fill="#1525a5"></path></g></g><style>text {
  font-size: 64px;
  font-family: Arial Black;
  dominant-baseline: central;
  text-anchor: middle;
}</style></svg>